<svg width="" height="" viewBox="0 0 324 202" fill="none" xmlns="http://www.w3.org/2000/svg">
<g clip-path="url(#clip0_2834_22781)">
<g clip-path="url(#clip1_2834_22781)">
<mask id="mask0_2834_22781" style="mask-type:alpha" maskUnits="userSpaceOnUse" x="0" y="0" width="360" height="202">
<rect width="360" height="202" fill="#D9D9D9"/>
</mask>
<g mask="url(#mask0_2834_22781)">
<rect x="-48" width="416" height="260" fill="black" fill-opacity="0.0924"/>
<rect x="136.5" y="69.5" width="53" height="53" rx="26.5" fill="#C42B1C" stroke="#C42B1C"/>
<path d="M163.02 98.9492L153.254 108.734C152.85 109.138 152.355 109.34 151.77 109.34C151.184 109.34 150.689 109.145 150.285 108.754C149.895 108.35 149.699 107.855 149.699 107.27C149.699 106.684 149.901 106.189 150.305 105.785L160.07 96L150.305 86.2344C149.901 85.8307 149.699 85.3424 149.699 84.7695C149.699 84.4831 149.751 84.2096 149.855 83.9492C149.96 83.6888 150.103 83.4674 150.285 83.2852C150.48 83.1029 150.702 82.9596 150.949 82.8555C151.197 82.7383 151.47 82.6797 151.77 82.6797C152.342 82.6797 152.831 82.8815 153.234 83.2852L163.02 93.0703L172.785 83.2852C173.202 82.8685 173.697 82.6602 174.27 82.6602C174.556 82.6602 174.823 82.7188 175.07 82.8359C175.331 82.9401 175.552 83.0898 175.734 83.2852C175.93 83.4674 176.079 83.6888 176.184 83.9492C176.288 84.1966 176.34 84.4635 176.34 84.75C176.34 85.3229 176.138 85.8112 175.734 86.2148L165.949 96L175.734 105.785C176.151 106.202 176.359 106.697 176.359 107.27C176.359 107.556 176.301 107.823 176.184 108.07C176.079 108.318 175.93 108.539 175.734 108.734C175.552 108.917 175.331 109.066 175.07 109.184C174.823 109.288 174.556 109.34 174.27 109.34C173.684 109.34 173.189 109.138 172.785 108.734L163.02 98.9492Z" fill="white"/>
</g>
</g>
<rect x="0.5" y="0.5" width="323" height="201" rx="3.5" stroke="black" stroke-opacity="0.0578"/>
</g>
<rect x="0.5" y="0.5" width="323" height="201" rx="3.5" stroke="black" stroke-opacity="0.0578"/>
<defs>
<clipPath id="clip0_2834_22781">
<rect width="324" height="202" rx="4" fill="white"/>
</clipPath>
<clipPath id="clip1_2834_22781">
<rect width="324" height="202" rx="4" fill="white"/>
</clipPath>
</defs>
</svg>
