<svg width="" height="" viewBox="0 0 324 202" fill="none" xmlns="http://www.w3.org/2000/svg">
<g clip-path="url(#clip0_3751_32328)">
<g clip-path="url(#clip1_3751_32328)">
<mask id="mask0_3751_32328" style="mask-type:alpha" maskUnits="userSpaceOnUse" x="0" y="0" width="360" height="202">
<rect width="360" height="202" fill="#D9D9D9"/>
</mask>
<g mask="url(#mask0_3751_32328)">
<rect x="-48" width="416" height="260" fill="black" fill-opacity="0.0924"/>
<rect x="136.5" y="69.5" width="53" height="53" rx="26.5" fill="#9D5D00" stroke="#9D5D00"/>
<path d="M159.66 96V82.6602C159.66 82.2044 159.745 81.7747 159.914 81.3711C160.096 80.9674 160.337 80.6159 160.637 80.3164C160.949 80.0169 161.307 79.7826 161.711 79.6133C162.115 79.431 162.544 79.3398 163 79.3398C163.456 79.3398 163.885 79.431 164.289 79.6133C164.693 79.7826 165.044 80.0169 165.344 80.3164C165.656 80.6159 165.897 80.9674 166.066 81.3711C166.249 81.7747 166.34 82.2044 166.34 82.6602V96C166.34 96.4557 166.249 96.8854 166.066 97.2891C165.897 97.6927 165.656 98.0508 165.344 98.3633C165.044 98.6628 164.693 98.9036 164.289 99.0859C163.885 99.2552 163.456 99.3398 163 99.3398C162.544 99.3398 162.115 99.2552 161.711 99.0859C161.307 98.9036 160.949 98.6628 160.637 98.3633C160.337 98.0508 160.096 97.6927 159.914 97.2891C159.745 96.8854 159.66 96.4557 159.66 96ZM158.84 109.34C158.84 108.767 158.951 108.227 159.172 107.719C159.393 107.211 159.693 106.768 160.07 106.391C160.448 106.013 160.884 105.714 161.379 105.492C161.887 105.271 162.427 105.16 163 105.16C163.573 105.16 164.107 105.271 164.602 105.492C165.109 105.714 165.552 106.013 165.93 106.391C166.307 106.768 166.607 107.211 166.828 107.719C167.049 108.227 167.16 108.767 167.16 109.34C167.16 109.913 167.049 110.453 166.828 110.961C166.607 111.456 166.307 111.892 165.93 112.27C165.552 112.647 165.109 112.947 164.602 113.168C164.094 113.389 163.56 113.5 163 113.5C162.427 113.5 161.887 113.389 161.379 113.168C160.884 112.947 160.448 112.647 160.07 112.27C159.693 111.892 159.393 111.456 159.172 110.961C158.951 110.453 158.84 109.913 158.84 109.34Z" fill="white"/>
</g>
</g>
<rect x="0.5" y="0.5" width="323" height="201" rx="3.5" stroke="black" stroke-opacity="0.0578"/>
</g>
<rect x="0.5" y="0.5" width="323" height="201" rx="3.5" stroke="black" stroke-opacity="0.0578"/>
<defs>
<clipPath id="clip0_3751_32328">
<rect width="324" height="202" rx="4" fill="white"/>
</clipPath>
<clipPath id="clip1_3751_32328">
<rect width="324" height="202" rx="4" fill="white"/>
</clipPath>
</defs>
</svg>
