<svg width="" height="" viewBox="0 0 54 54" fill="none" xmlns="http://www.w3.org/2000/svg">
<rect x="0.5" y="0.5" width="53" height="53" rx="26.5" fill="#005FB7" stroke="#005FB7"/>
<path d="M13 26V17C13 16.7083 13.0781 16.4896 13.2344 16.3438C13.401 16.1979 13.6094 16.0885 13.8594 16.0156C14.0885 15.9531 14.3281 15.9115 14.5781 15.8906C14.8281 15.8594 15.0677 15.8177 15.2969 15.7656C15.6927 15.6927 16.0833 15.6146 16.4688 15.5312C16.8646 15.4375 17.2604 15.3333 17.6562 15.2188C18.4688 14.9896 19.25 14.7344 20 14.4531C20.75 14.1719 21.4792 13.8646 22.1875 13.5312C22.9062 13.1979 23.6146 12.8333 24.3125 12.4375C25.0104 12.0417 25.7188 11.6198 26.4375 11.1719C26.5312 11.1198 26.6198 11.0781 26.7031 11.0469C26.7865 11.0156 26.8854 11 27 11C27.1146 11 27.2135 11.0156 27.2969 11.0469C27.3802 11.0781 27.4688 11.1198 27.5625 11.1719C28.2812 11.6198 28.9896 12.0417 29.6875 12.4375C30.3854 12.8333 31.0885 13.1979 31.7969 13.5312C32.5156 13.8646 33.25 14.1719 34 14.4531C34.75 14.7344 35.5312 14.9896 36.3438 15.2188C36.7396 15.3333 37.1302 15.4375 37.5156 15.5312C37.9115 15.6146 38.3073 15.6927 38.7031 15.7656C38.9323 15.8177 39.1719 15.8594 39.4219 15.8906C39.6719 15.9115 39.9115 15.9531 40.1406 16.0156C40.3906 16.0885 40.5938 16.1979 40.75 16.3438C40.9167 16.4896 41 16.7083 41 17V26C41 28.1979 40.651 30.1823 39.9531 31.9531C39.2552 33.7135 38.2917 35.2865 37.0625 36.6719C35.8438 38.0469 34.401 39.25 32.7344 40.2812C31.0781 41.3125 29.2865 42.1979 27.3594 42.9375C27.2656 42.9792 27.1458 43 27 43C26.9479 43 26.8854 42.9948 26.8125 42.9844C26.75 42.974 26.6927 42.9583 26.6406 42.9375C24.7135 42.2083 22.9167 41.3281 21.25 40.2969C19.5938 39.2552 18.151 38.0417 16.9219 36.6562C15.7031 35.2604 14.7448 33.6823 14.0469 31.9219C13.349 30.1615 13 28.1875 13 26ZM39 26V17.8594C36.8646 17.4948 34.7865 16.9219 32.7656 16.1406C30.7448 15.3594 28.8229 14.375 27 13.1875C25.1771 14.375 23.2552 15.3594 21.2344 16.1406C19.2135 16.9219 17.1354 17.4948 15 17.8594V26C15 27.9479 15.3073 29.6979 15.9219 31.25C16.5365 32.7917 17.3802 34.1667 18.4531 35.375C19.5365 36.5833 20.8073 37.6458 22.2656 38.5625C23.724 39.4688 25.3021 40.2552 27 40.9219C28.6979 40.2552 30.276 39.4688 31.7344 38.5625C33.1927 37.6458 34.4583 36.5833 35.5312 35.375C36.6146 34.1667 37.4635 32.7917 38.0781 31.25C38.6927 29.6979 39 27.9479 39 26Z" fill="white"/>
</svg>
